<svg width="162" height="172" viewBox="0 0 162 172" fill="none" xmlns="http://www.w3.org/2000/svg">
<path d="M137.282 93.2989C137.303 91.6438 133.391 91.0426 133.491 89.5899C133.59 88.1425 137.509 88.2356 141.498 85.4204C142.217 84.9127 146.751 81.7134 146.177 79.5224C145.089 75.3697 126.61 78.4927 124.478 72.4803C124.01 71.1609 124.28 69.2612 122.963 65.106C122.439 63.453 122.031 62.6023 121.278 62.3668C120.209 62.0325 119.379 63.2288 116.895 65.0624C113.171 67.8123 112.424 67.0531 109.773 69.4428C107.806 71.2169 107.184 72.567 106.275 72.3494C104.989 72.0415 105.403 69.1391 103.916 68.5144C102.399 67.8769 99.926 70.0415 98.4379 71.884C95.6452 75.3415 95.512 78.6661 94.6853 81.7429C93.7868 85.0867 91.6488 89.7011 86.002 94.6346L34.2929 136.611C45.1996 128.178 75.7451 105.457 87.6868 97.3739C91.1341 95.0405 94.7632 92.7545 98.896 93.5001C102.875 94.2178 106.841 97.6589 113.305 99.7398C114.06 99.9829 116.17 100.633 117.055 99.6986C117.787 98.9265 117.015 97.7753 117.688 97.0442C118.59 96.0635 120.711 97.3389 124.093 97.6357C126.477 97.845 128.276 97.4613 129.823 97.1314C130.29 97.032 137.255 95.5021 137.282 93.2989Z" fill="#F2F2F2"/>
<path d="M45.2542 75.8548C44.4479 75.367 43.024 77.1135 42.3398 76.6454C41.6581 76.179 42.8345 74.2826 42.6037 71.5125C42.5621 71.013 42.2998 67.8649 41.0589 67.5145C38.7067 66.8502 34.9077 76.821 31.3418 76.1324C30.5592 75.9813 29.7048 75.3007 27.2853 74.7483C26.3229 74.5285 25.7877 74.4832 25.4547 74.7849C24.9823 75.2129 25.3298 75.9658 25.5132 77.7137C25.7883 80.3351 25.2 80.4828 25.6082 82.4732C25.9112 83.9508 26.3945 84.6454 26.0254 85.0287C25.5032 85.5711 24.1982 84.5304 23.4626 85.0799C22.712 85.6406 23.0608 87.479 23.5357 88.741C24.4269 91.1093 26.0202 92.1339 27.2918 93.4275C28.6737 94.8332 30.3216 97.2139 31.1137 101.409L36.7964 138.9C35.8044 131.113 33.4659 109.566 32.9443 101.372C32.7937 99.0072 32.7188 96.5664 34.2772 94.7531C35.7776 93.0073 38.6109 92.0534 41.4972 89.4814C41.8343 89.181 42.762 88.3329 42.559 87.6289C42.3912 87.0468 41.6035 87.0935 41.4388 86.5524C41.2178 85.8267 42.4557 85.1537 43.577 83.5797C44.3677 82.4698 44.6985 81.4761 44.983 80.6216C45.0688 80.3639 46.3275 76.504 45.2541 75.8548L45.2542 75.8548Z" fill="#F2F2F2"/>
<path d="M59.1042 89.2492L61.2594 84.6271L61.6809 84.4342C63.631 83.5428 65.057 82.3803 65.9211 80.9782C66.0585 80.7553 66.1845 80.5254 66.313 80.2913C66.8218 79.3634 67.4541 78.2097 68.8369 77.2589C69.6098 76.7299 71.561 75.6041 72.8185 76.6581C73.1596 76.9378 73.337 77.2812 73.4288 77.6124C73.4907 77.5814 73.5537 77.551 73.6213 77.5177C74.4542 77.1229 74.9679 77.0493 75.4626 76.9784C75.8428 76.9238 76.2352 76.8679 76.9557 76.608C77.2718 76.4941 77.5315 76.3832 77.7503 76.2902C78.4132 76.0095 79.2444 75.6997 80.0632 76.2136C80.9193 76.7933 80.9361 77.804 80.9477 78.4733C80.9688 79.6673 80.8378 80.4388 80.7507 80.9504C80.7185 81.1372 80.6831 81.3478 80.6857 81.421C80.7149 82.0122 83.2627 83.0307 84.2194 83.4195C86.3726 84.2861 88.2358 85.0359 88.1804 86.6935C88.1418 87.8797 87.0597 88.8191 84.8743 89.5584C84.1937 89.7881 83.5569 89.8898 83.0142 89.9428C83.2102 90.3147 83.3139 90.765 83.1554 91.276C82.7787 92.4853 81.2362 92.9861 78.5691 92.7692C77.9057 92.7171 77.0146 92.6435 75.9582 92.2254C75.4608 92.028 75.0441 91.7995 74.6909 91.5984C74.5612 91.7944 74.3817 91.983 74.1231 92.132C73.3633 92.5714 72.4263 92.4297 71.3483 91.6687C70.1511 90.8494 69.2767 89.9919 68.5046 89.237C67.8298 88.5787 67.2471 88.0139 66.6948 87.7256C65.6624 87.2047 64.4235 87.5295 62.9103 88.0081L59.1042 89.2492Z" fill="#F2F2F2"/>
<path d="M77.0699 64.8615L72.0523 63.9492L71.7588 63.5904C70.4019 61.9302 68.9157 60.8457 67.3403 60.3655C67.0898 60.2891 66.8355 60.2256 66.5765 60.1607C65.5498 59.9038 64.2735 59.5849 63.003 58.4884C62.2953 57.875 60.7114 56.2732 61.4119 54.7894C61.596 54.3886 61.8831 54.1298 62.1802 53.957C62.1345 53.905 62.0892 53.8518 62.0398 53.7948C61.4466 53.0893 61.2451 52.6112 61.0512 52.1506C60.9018 51.7967 60.7483 51.4312 60.3141 50.8002C60.1238 50.5234 59.9505 50.3003 59.8051 50.1123C59.3654 49.5423 58.8549 48.8168 59.1443 47.8944C59.4879 46.9193 60.4614 46.6467 61.1058 46.4657C62.2554 46.1424 63.0349 46.0734 63.5519 46.0279C63.7407 46.0118 63.9534 45.9925 64.0236 45.9714C64.588 45.7933 64.9269 43.0704 65.0604 42.0463C65.3524 39.7438 65.6051 37.7514 67.2226 37.3845C68.3798 37.121 69.563 37.9293 70.8324 39.8558C71.2273 40.4559 71.4871 41.0461 71.6761 41.5575C71.986 41.2736 72.3953 41.0591 72.9299 41.0828C74.1952 41.1404 75.0708 42.5055 75.5375 45.1404C75.6554 45.7953 75.8102 46.6759 75.6737 47.8038C75.609 48.335 75.4937 48.7961 75.3887 49.1887C75.6113 49.2644 75.8392 49.3902 76.0489 49.6026C76.6667 50.2261 76.7673 51.1683 76.3046 52.4041C75.8157 53.77 75.2081 54.8333 74.6737 55.7716C74.2081 56.5913 73.8096 57.2983 73.6708 57.9056C73.4288 59.0364 74.0572 60.1524 74.904 61.4947L77.0699 64.8615Z" fill="#F2F2F2"/>
<path d="M82.5986 50.744L84.7537 46.1219L85.1753 45.929C87.1254 45.0376 88.5513 43.8751 89.4154 42.473C89.5529 42.2501 89.6788 42.0202 89.8073 41.7862C90.3162 40.8582 90.9485 39.7045 92.3313 38.7536C93.1041 38.2247 95.0553 37.0989 96.3129 38.1529C96.6539 38.4327 96.8314 38.776 96.9232 39.1072C96.9851 39.0762 97.0481 39.0458 97.1157 39.0125C97.9486 38.6177 98.4622 38.5441 98.957 38.4733C99.3372 38.4186 99.7296 38.3628 100.45 38.1029C100.766 37.989 101.026 37.878 101.245 37.785C101.908 37.5043 102.739 37.1944 103.558 37.7084C104.414 38.2881 104.43 39.2988 104.442 39.9681C104.463 41.1621 104.332 41.9336 104.245 42.4452C104.213 42.632 104.177 42.8426 104.18 42.9159C104.209 43.507 106.757 44.5255 107.714 44.9143C109.867 45.7809 111.73 46.5307 111.675 48.1883C111.636 49.3745 110.554 50.314 108.369 51.0532C107.688 51.2829 107.051 51.3846 106.509 51.4376C106.705 51.8095 106.808 52.2598 106.65 52.7708C106.273 53.9801 104.731 54.4809 102.063 54.264C101.4 54.2119 100.509 54.1383 99.4526 53.7202C98.9552 53.5228 98.5384 53.2943 98.1853 53.0932C98.0556 53.2892 97.876 53.4778 97.6175 53.6268C96.8577 54.0662 95.9207 53.9245 94.8427 53.1636C93.6454 52.3442 92.7711 51.4868 91.999 50.7318C91.3242 50.0736 90.7414 49.5087 90.1891 49.2205C89.1568 48.6995 87.9179 49.0244 86.4047 49.5029L82.5986 50.744Z" fill="#F2F2F2"/>
<path d="M35.7843 137.424L35.2243 136.303L35.6436 135.123L35.2243 136.303L34.0933 135.779C34.1365 135.671 34.2167 135.41 34.3455 135.004C35.0526 132.781 37.2021 126.014 41.6558 116.009C44.7648 109.024 48.3493 102.081 52.3109 95.3672C56.2789 88.6433 59.6726 83.7907 62.3995 79.8901C64.4567 76.9484 66.4654 74.1778 68.4241 71.4798C73.6544 64.2704 78.594 57.4599 83.0049 49.2747C83.9905 47.4479 86.0403 43.6445 86.2798 38.4126C86.4184 35.3781 85.9305 32.311 84.8272 29.2986L87.1823 28.4364C88.3984 31.7642 88.9366 35.1601 88.7829 38.5294C88.5173 44.3302 86.2839 48.4746 85.2108 50.4658C80.7218 58.7955 75.7339 65.6711 70.4527 72.9498C68.5025 75.6386 66.5014 78.3967 64.4529 81.3265C61.751 85.1908 58.3872 90.0014 54.4705 96.6391C50.5553 103.272 47.0152 110.131 43.9444 117.027C39.5475 126.906 37.4307 133.573 36.7351 135.763C36.3629 136.932 36.2852 137.177 35.7843 137.424Z" fill="#F2F2F2"/>
<path d="M78.8301 30.3037C78.7424 30.2501 78.6549 30.1939 78.5689 30.1328C76.8072 28.9231 75.7856 26.8033 75.5311 23.8329C75.4139 22.4369 75.7243 21.1155 76.3432 18.4801C76.4379 18.0735 76.9425 16.0249 78.0541 13.4608C78.7798 11.7851 79.2009 11.1561 79.8549 10.7726C80.5819 10.3446 81.4015 10.237 82.2021 10.3156C82.2999 10.0943 82.4506 9.89665 82.6707 9.73564C83.5795 9.06605 84.4774 9.77449 84.9673 10.1508C85.2122 10.3461 85.5166 10.592 85.8853 10.7912C86.4638 11.1069 86.8676 11.124 87.4781 11.1525C88.0623 11.1793 88.7888 11.2125 89.6969 11.5401C91.4914 12.1793 92.55 13.4444 92.8992 13.861C94.7425 16.0436 94.7856 18.5382 94.8351 21.4265C94.8434 22.0049 94.8189 24.077 94.1432 26.5258C93.6558 28.2925 93.1874 28.924 92.7545 29.3422C91.8679 30.2031 90.8896 30.4089 88.5235 30.7369C86.0506 31.0828 84.8103 31.2549 83.849 31.233C81.613 31.1789 80.2089 31.1449 78.8301 30.3036L78.8301 30.3037Z" fill="#F2F2F2"/>
</svg>
