<svg width="17" height="17" viewBox="0 0 17 17" fill="none" xmlns="http://www.w3.org/2000/svg">
<path d="M8.49998 0.708336C9.43262 0.708336 10.2265 1.03594 10.8818 1.69115C11.537 2.34636 11.8646 3.14028 11.8646 4.07292V5.77292H13.1041C13.3993 5.77292 13.6502 5.87622 13.8568 6.08281C14.0633 6.28941 14.1666 6.54028 14.1666 6.83542V14.5208C14.1666 14.816 14.0633 15.0668 13.8568 15.2734C13.6502 15.48 13.3993 15.5833 13.1041 15.5833H3.89581C3.60067 15.5833 3.34981 15.48 3.14321 15.2734C2.93661 15.0668 2.83331 14.816 2.83331 14.5208V6.83542C2.83331 6.54028 2.93661 6.28941 3.14321 6.08281C3.34981 5.87622 3.60067 5.77292 3.89581 5.77292H5.1354V4.07292C5.1354 3.14028 5.463 2.34636 6.11821 1.69115C6.77342 1.03594 7.56734 0.708336 8.49998 0.708336ZM8.49998 1.77084C7.86248 1.77084 7.31942 1.99514 6.87081 2.44375C6.4222 2.89236 6.1979 3.43542 6.1979 4.07292V5.77292H10.8021V4.07292C10.8021 3.43542 10.5778 2.89236 10.1291 2.44375C9.68054 1.99514 9.13748 1.77084 8.49998 1.77084ZM3.89581 14.5208H13.1041V6.83542H3.89581V14.5208ZM8.49998 9.31459C8.1222 9.31459 7.8005 9.4592 7.53488 9.74844C7.26925 10.0377 7.13644 10.3594 7.13644 10.7135C7.13644 11.0795 7.26925 11.3924 7.53488 11.6521C7.8005 11.9118 8.1222 12.0417 8.49998 12.0417C8.87776 12.0417 9.19946 11.9118 9.46508 11.6521C9.73071 11.3924 9.86352 11.0795 9.86352 10.7135C9.86352 10.3594 9.73071 10.0377 9.46508 9.74844C9.19946 9.4592 8.87776 9.31459 8.49998 9.31459ZM3.89581 6.83542V14.5208V6.83542Z" fill="#112222"/>
</svg>
