<svg width="584" height="431" viewBox="0 0 584 431" fill="none" xmlns="http://www.w3.org/2000/svg">
<g clip-path="url(#clip0_1_30)">
<path d="M291.52 308.951C227.088 308.951 166.482 299.359 120.868 281.943C74.6457 264.295 49.1902 240.588 49.1902 215.188C49.1902 189.789 74.6458 166.083 120.868 148.435C166.482 131.018 227.088 121.427 291.52 121.427C355.953 121.427 416.558 131.018 462.173 148.435C508.394 166.083 533.85 189.79 533.85 215.188C533.85 240.587 508.394 264.295 462.173 281.943C416.558 299.359 355.953 308.951 291.52 308.951ZM291.52 125.427C227.563 125.427 167.465 134.925 122.295 152.171C77.7317 169.186 53.1902 191.566 53.1902 215.188C53.1902 238.81 77.7317 261.191 122.295 278.206C167.465 295.453 227.563 304.951 291.52 304.951C355.477 304.951 415.576 295.453 460.745 278.206C505.308 261.191 529.85 238.811 529.85 215.188C529.85 191.565 505.308 169.186 460.745 152.171C415.575 134.925 355.477 125.427 291.52 125.427Z" fill="#78F275"/>
<path d="M391.642 430.378C371.618 430.378 346.657 418.805 319.035 396.355C281.145 365.56 242.535 317.87 210.32 262.07C178.103 206.27 156.107 148.988 148.383 100.777C140.556 51.9228 148.359 18.0243 170.355 5.32512C192.351 -7.37361 225.611 2.8178 264.005 34.0224C301.895 64.8178 340.505 112.508 372.72 168.308C404.937 224.107 426.933 281.39 434.657 329.601C442.484 378.455 434.681 412.353 412.685 425.054C406.513 428.616 399.452 430.378 391.642 430.378ZM191.505 3.96917C184.365 3.96917 177.943 5.56292 172.355 8.78899C151.897 20.6005 144.786 53.0439 152.333 100.144C159.982 147.886 181.805 204.682 213.783 260.07C245.762 315.458 284.037 362.756 321.558 393.251C358.575 423.337 390.228 433.402 410.685 421.589C431.143 409.777 438.254 377.334 430.707 330.234C423.058 282.492 401.235 225.696 369.257 170.308C337.278 114.92 299.003 67.622 261.482 37.1269C234.576 15.2587 210.504 3.96917 191.505 3.96917Z" fill="#78F275"/>
<path d="M191.397 430.378C183.586 430.378 176.528 428.617 170.355 425.054C148.359 412.353 140.556 378.455 148.383 329.602C156.107 281.39 178.103 224.107 210.32 168.308C242.535 112.508 281.145 64.8178 319.035 34.0224C357.43 2.81731 390.69 -7.37507 412.685 5.32512C434.681 18.0243 442.484 51.9228 434.657 100.777C426.933 148.988 404.937 206.27 372.72 262.07C340.505 317.87 301.895 365.56 264.005 396.355C236.385 418.804 211.421 430.378 191.397 430.378ZM391.535 3.96917C372.536 3.96917 348.467 15.2573 321.558 37.1269C284.037 67.622 245.762 114.92 213.783 170.308C181.805 225.696 159.982 282.492 152.333 330.234C144.786 377.334 151.897 409.777 172.355 421.589C177.942 424.814 184.367 426.408 191.505 426.409C210.504 426.411 234.573 415.121 261.482 393.251C299.003 362.756 337.278 315.458 369.257 260.07C401.235 204.682 423.058 147.886 430.707 100.144C438.254 53.0439 431.143 20.6005 410.685 8.78899C405.098 5.56389 398.673 3.96917 391.535 3.96917Z" fill="#78F275"/>
<path d="M291.52 259.978C316.256 259.978 336.309 239.925 336.309 215.189C336.309 190.453 316.256 170.4 291.52 170.4C266.784 170.4 246.731 190.453 246.731 215.189C246.731 239.925 266.784 259.978 291.52 259.978Z" fill="#78F275"/>
<path d="M564.784 338.786C563.94 337.362 560.287 338.887 559.616 337.595C558.947 336.307 562.34 334.346 564.279 329.865C564.629 329.057 566.832 323.965 565.201 322.393C562.109 319.415 547.961 331.706 543.01 327.684C541.924 326.801 541.164 325.039 537.876 322.178C536.568 321.04 535.776 320.526 535.011 320.717C533.924 320.988 533.838 322.442 532.673 325.301C530.926 329.588 529.893 329.329 528.875 332.75C528.12 335.289 528.292 336.765 527.403 337.053C526.145 337.46 524.987 334.767 523.392 335.008C521.765 335.254 520.781 338.39 520.471 340.738C519.887 345.144 521.505 348.051 522.402 351.109C523.377 354.431 523.955 359.483 521.705 366.636L499.427 429.402C504.346 416.523 518.586 381.217 524.57 368.097C526.297 364.31 528.204 360.468 532.121 358.952C535.891 357.492 541.069 358.363 547.671 356.773C548.442 356.587 550.581 356.043 550.851 354.785C551.073 353.744 549.815 353.164 550.008 352.189C550.268 350.882 552.742 350.866 555.784 349.358C557.928 348.295 559.264 347.03 560.413 345.943C560.759 345.615 565.908 340.681 564.784 338.786Z" fill="#F2F2F2"/>
<path d="M477.139 371.829C476.197 371.832 475.891 374.065 475.063 374.022C474.238 373.979 474.254 371.747 472.615 369.503C472.319 369.098 470.455 366.547 469.214 366.894C466.86 367.552 468.81 378.043 465.407 379.312C464.661 379.591 463.577 379.455 461.224 380.243C460.288 380.557 459.807 380.797 459.68 381.228C459.5 381.84 460.188 382.301 461.255 383.698C462.856 385.792 462.43 386.225 463.816 387.711C464.844 388.815 465.618 389.156 465.503 389.676C465.34 390.41 463.683 390.202 463.342 391.054C462.993 391.924 464.248 393.311 465.311 394.141C467.305 395.699 469.199 395.744 470.958 396.185C472.87 396.666 475.517 397.84 478.378 401.008L502.756 430.052C497.854 423.922 484.635 406.746 479.922 400.023C478.561 398.083 477.226 396.038 477.612 393.679C477.983 391.407 479.905 389.117 481.029 385.418C481.161 384.986 481.511 383.779 480.971 383.283C480.524 382.874 479.876 383.324 479.454 382.948C478.887 382.444 479.593 381.224 479.731 379.297C479.828 377.937 479.593 376.917 479.39 376.039C479.329 375.775 478.393 371.824 477.139 371.829H477.139Z" fill="#F2F2F2"/>
<path d="M495.939 376.049L495.371 370.981L495.63 370.596C496.831 368.82 497.442 367.085 497.45 365.438C497.451 365.176 497.439 364.914 497.426 364.647C497.377 363.59 497.316 362.276 498.001 360.744C498.386 359.89 499.465 357.913 501.087 358.157C501.524 358.219 501.855 358.419 502.105 358.654C502.142 358.595 502.18 358.537 502.22 358.473C502.726 357.702 503.126 357.372 503.511 357.054C503.807 356.809 504.113 356.557 504.593 355.96C504.804 355.698 504.967 355.468 505.106 355.275C505.525 354.69 506.074 353.992 507.04 354.004C508.073 354.053 508.614 354.907 508.972 355.473C509.612 356.481 509.902 357.208 510.094 357.69C510.164 357.866 510.244 358.064 510.284 358.125C510.617 358.615 513.322 358.157 514.341 357.991C516.631 357.609 518.612 357.279 519.428 358.723C520.013 359.755 519.579 361.121 518.098 362.89C517.637 363.441 517.146 363.859 516.71 364.187C517.071 364.403 517.394 364.733 517.525 365.252C517.834 366.48 516.778 367.711 514.388 368.915C513.795 369.216 512.996 369.618 511.876 369.811C511.349 369.901 510.874 369.923 510.468 369.936C510.459 370.171 510.404 370.425 510.261 370.687C509.841 371.458 508.967 371.825 507.651 371.737C506.202 371.661 505.009 371.384 503.957 371.142C503.038 370.932 502.246 370.753 501.625 370.795C500.472 370.888 499.584 371.81 498.541 373.007L495.939 376.049Z" fill="#F2F2F2"/>
<path d="M498.572 345.873L493.814 347.708L493.376 347.554C491.353 346.844 489.52 346.692 487.925 347.103C487.671 347.168 487.421 347.246 487.166 347.326C486.156 347.641 484.9 348.034 483.245 347.759C482.321 347.604 480.135 347.062 479.96 345.431C479.908 344.993 480.018 344.622 480.182 344.32C480.116 344.299 480.05 344.277 479.978 344.254C479.104 343.961 478.683 343.658 478.277 343.366C477.966 343.141 477.644 342.91 476.945 342.597C476.638 342.46 476.374 342.36 476.152 342.275C475.48 342.017 474.666 341.664 474.433 340.726C474.218 339.714 474.907 338.975 475.363 338.485C476.176 337.61 476.805 337.145 477.223 336.837C477.376 336.725 477.547 336.597 477.596 336.543C477.985 336.097 476.856 333.596 476.437 332.652C475.487 330.535 474.665 328.702 475.855 327.546C476.705 326.719 478.136 326.793 480.223 327.776C480.873 328.082 481.402 328.451 481.83 328.789C481.946 328.385 482.184 327.989 482.653 327.731C483.763 327.121 485.221 327.83 486.992 329.836C487.434 330.334 488.025 331.005 488.496 332.039C488.717 332.526 488.859 332.98 488.974 333.37C489.203 333.318 489.463 333.307 489.753 333.379C490.605 333.59 491.182 334.341 491.43 335.637C491.725 337.058 491.76 338.282 491.792 339.361C491.822 340.304 491.85 341.115 492.048 341.706C492.43 342.797 493.548 343.422 494.97 344.127L498.572 345.873Z" fill="#F2F2F2"/>
<path d="M495.939 330.942L495.371 325.874L495.63 325.49C496.831 323.713 497.442 321.978 497.45 320.331C497.451 320.069 497.439 319.807 497.426 319.54C497.377 318.483 497.316 317.169 498.001 315.637C498.386 314.783 499.465 312.806 501.087 313.05C501.524 313.112 501.855 313.312 502.105 313.547C502.142 313.488 502.18 313.43 502.22 313.366C502.726 312.595 503.126 312.265 503.511 311.947C503.807 311.702 504.113 311.45 504.593 310.853C504.804 310.591 504.967 310.361 505.106 310.168C505.525 309.583 506.074 308.885 507.04 308.897C508.073 308.946 508.614 309.801 508.972 310.366C509.612 311.374 509.902 312.101 510.094 312.583C510.164 312.759 510.244 312.957 510.284 313.019C510.617 313.508 513.322 313.05 514.341 312.884C516.631 312.502 518.612 312.172 519.428 313.616C520.013 314.648 519.579 316.014 518.098 317.783C517.637 318.334 517.146 318.752 516.71 319.08C517.071 319.296 517.394 319.626 517.525 320.145C517.834 321.373 516.778 322.604 514.388 323.808C513.795 324.109 512.996 324.511 511.876 324.704C511.349 324.795 510.874 324.817 510.468 324.829C510.459 325.064 510.404 325.318 510.261 325.58C509.841 326.351 508.967 326.718 507.651 326.63C506.202 326.554 505.009 326.278 503.957 326.035C503.038 325.825 502.246 325.646 501.625 325.688C500.472 325.781 499.584 326.703 498.541 327.9L495.939 330.942Z" fill="#F2F2F2"/>
<path d="M501.124 429.32L500.062 428.654L499.805 427.428L500.062 428.654L498.824 428.796C498.804 428.681 498.737 428.417 498.635 428.003C498.081 425.737 496.391 418.841 494.982 407.98C493.998 400.399 493.441 392.604 493.326 384.81C493.211 377.003 493.581 371.093 493.877 366.343C494.101 362.761 494.372 359.349 494.639 356.026C495.349 347.147 496.018 338.761 495.52 329.476C495.41 327.403 495.179 323.089 492.658 318.498C491.196 315.835 489.182 313.471 486.671 311.474L488.232 309.512C491.004 311.719 493.232 314.338 494.856 317.294C497.65 322.384 497.902 327.085 498.024 329.344C498.53 338.793 497.853 347.26 497.136 356.224C496.872 359.535 496.6 362.932 496.378 366.5C496.084 371.206 495.718 377.064 495.832 384.771C495.945 392.472 496.495 400.171 497.466 407.657C498.858 418.381 500.523 425.174 501.07 427.406C501.362 428.598 501.423 428.847 501.124 429.32Z" fill="#F2F2F2"/>
<path d="M482.075 315.456C481.972 315.456 481.868 315.454 481.763 315.446C479.629 315.331 477.653 314.054 475.889 311.651C475.061 310.52 474.638 309.23 473.794 306.658C473.663 306.262 473.027 304.25 472.64 301.482C472.387 299.674 472.418 298.918 472.777 298.25C473.175 297.506 473.818 296.987 474.543 296.637C474.511 296.397 474.536 296.15 474.64 295.898C475.068 294.853 476.203 294.99 476.817 295.056C477.128 295.095 477.516 295.147 477.934 295.125C478.593 295.093 478.946 294.897 479.482 294.603C479.995 294.322 480.632 293.972 481.578 293.779C483.443 293.39 485.006 293.918 485.521 294.092C488.231 294.995 489.567 297.102 491.114 299.542C491.422 300.031 492.481 301.813 493.179 304.255C493.683 306.017 493.612 306.8 493.461 307.383C493.152 308.579 492.424 309.265 490.575 310.777C488.645 312.36 487.675 313.153 486.843 313.635C484.906 314.754 483.69 315.456 482.075 315.456V315.456Z" fill="#F2F2F2"/>
<path d="M243.47 228.74C247.635 229.839 251.579 228.58 252.278 225.929C252.977 223.278 250.167 220.238 246 219.139C244.341 218.677 242.596 218.619 240.91 218.97L223.201 214.536L221.297 222.891L238.957 226.375C240.251 227.512 241.798 228.323 243.47 228.74Z" fill="#FFB6B6"/>
<path d="M146.133 188.062C146.133 188.062 142.536 194.965 147.522 198.37C152.507 201.775 194.024 217.556 194.024 217.556L235.254 226.528L236.742 216.508L199.204 204.516L167.901 183.463L146.133 188.062H146.133Z" fill="#112222"/>
<path d="M195.229 410.87L202.222 407.724L191.212 374.816L180.892 379.457L195.229 410.87Z" fill="#FFB6B6"/>
<path d="M225.854 413.944C226.413 415.112 226.038 416.456 225.015 416.945L211.29 423.512C211.29 423.512 207.342 418.729 200.717 419.028L204.053 426.975L196.973 430.363L191.856 417.466C191.856 417.466 186.765 411.692 189.065 406.395C191.364 401.098 188.406 403.098 188.406 403.098L186.255 394.629L197.556 390.768L203.439 402.862L214.393 412.419L223.809 412.537C224.647 412.548 225.451 413.101 225.854 413.944L225.854 413.944Z" fill="#112222"/>
<path d="M56.8607 393.879L63.1094 398.323L85.9381 372.188L76.717 365.63L56.8607 393.879Z" fill="#FFB6B6"/>
<path d="M69.6893 421.858C68.964 422.931 67.6147 423.286 66.6756 422.651L54.0713 414.128C54.0713 414.128 56.2022 408.304 52.5958 402.739L47.4248 409.634L40.9227 405.238L49.464 394.303C49.464 394.303 51.8728 386.992 57.6055 386.299C63.3382 385.605 60.1172 384.063 60.1172 384.063L66.3371 377.927L75.3813 385.725L67.9204 396.915L65.2113 411.198L69.8692 419.382C70.2838 420.11 70.213 421.083 69.6892 421.858L69.6893 421.858Z" fill="#112222"/>
<path d="M167.488 143.322H134.654V188.413H167.488V143.322Z" fill="#112222"/>
<path d="M160.115 169.095L142.287 163.795L138.914 172.949L138.432 228.842C138.432 228.842 163.969 223.06 169.751 232.696L171.679 215.351C171.679 215.351 177.942 206.678 172.642 195.595C167.342 184.513 162.345 179.517 162.345 179.517L158.187 177.286L160.115 169.095V169.095Z" fill="#1AC4CF"/>
<path d="M139.637 220.41L137.228 244.983L169.028 251.729C169.028 251.729 166.619 230.528 169.51 225.71L139.637 220.41Z" fill="#FFB6B6"/>
<path d="M170.956 251.247C170.956 251.247 150.719 236.31 133.373 242.092C133.373 242.092 112.895 254.861 123.495 277.025L107.354 315.33L71.2168 365.923L81.3352 377.968L129.036 328.34L144.455 307.139L183.483 390.014L195.529 384.232L180.592 320.631L171.678 276.543L170.956 251.247H170.956Z" fill="#112222"/>
<path d="M123.736 279.675L99.6448 271.966L122.773 207.882L120.364 173.672L140.768 167.917L152.164 218.482L123.736 279.675Z" fill="#112222"/>
<path d="M161.014 180.848L157.372 177.206L158.996 173.849C158.996 173.849 169.51 184.754 171.438 187.645C173.365 190.536 191.363 263.147 191.363 263.147L164.21 274.375L169.51 217.361L171.473 204.538C171.763 202.641 171.438 200.702 170.547 199.004L161.014 180.848Z" fill="#112222"/>
<path d="M152.152 164.537C160.976 164.537 168.129 157.384 168.129 148.56C168.129 139.736 160.976 132.583 152.152 132.583C143.328 132.583 136.174 139.736 136.174 148.56C136.174 157.384 143.328 164.537 152.152 164.537Z" fill="#FFB6B6"/>
<path d="M162.089 142.029C156.607 138.373 146.796 153.015 143.796 144.015C143.328 142.611 142.227 148.82 141.825 150.992C141.314 153.751 142.607 155.954 141.825 156.448C140.941 157.005 138.775 154.515 138.318 154.889C137.871 155.254 139.308 158.148 141.825 161.514C145.166 165.981 147.26 167.068 150.008 170.087C152.567 172.897 157.302 178.097 156.633 182.557C155.375 190.945 134.892 197.428 128.575 191.13C127.063 189.622 126.767 186.207 126.237 179.439C125.449 169.367 126.044 161.809 126.237 159.565C127.042 150.222 127.444 145.55 129.355 141.639C130.575 139.142 134.685 130.733 143.773 128C153.536 125.065 165.156 129.85 168.324 136.963C169.239 139.018 168.349 138.799 169.493 145.536C170.846 153.51 171.722 158.294 175.338 161.124C178.66 163.724 181.224 162.27 182.353 164.241C185.28 169.354 171.696 185.53 165.986 183.336C162.545 182.014 162.241 174.13 162.478 170.476C162.99 162.609 166.889 160.939 166.765 153.72C166.732 151.81 166.616 145.049 162.089 142.029V142.029Z" fill="#112222"/>
<path d="M92.4817 275.542C91.8033 279.797 93.4487 283.596 96.1565 284.027C98.8642 284.458 101.608 281.359 102.286 277.103C102.581 275.406 102.464 273.664 101.947 272.022L104.594 253.958L96.0906 252.897L94.3842 270.817C93.3818 272.217 92.7294 273.838 92.4817 275.542H92.4817Z" fill="#FFB6B6"/>
<path d="M123.255 174.636C123.255 174.636 116.027 171.745 113.136 177.045C110.245 182.345 98.6812 225.228 98.6812 225.228L93.8629 267.147L103.981 267.629L112.172 229.083L130 195.836L123.255 174.636V174.636Z" fill="#112222"/>
<path d="M583.04 430.18C583.04 430.644 582.664 431.02 582.2 431.02H0V429.34H582.2C582.664 429.34 583.04 429.716 583.04 430.18V430.18Z" fill="#E6E6E6"/>
<path d="M97.2823 104.299C97.3031 102.644 93.3912 102.043 93.491 100.59C93.5903 99.1425 97.5089 99.2356 101.498 96.4204C102.217 95.9127 106.751 92.7134 106.177 90.5224C105.089 86.3697 86.6095 89.4927 84.478 83.4803C84.0102 82.1609 84.28 80.2612 82.9629 76.106C82.4389 74.453 82.0312 73.6023 81.2781 73.3668C80.2095 73.0325 79.3786 74.2288 76.8952 76.0624C73.1709 78.8123 72.4236 78.0531 69.7731 80.4428C67.8055 82.2169 67.1839 83.567 66.2751 83.3494C64.989 83.0415 65.4032 80.1391 63.9164 79.5144C62.3991 78.8769 59.926 81.0415 58.4378 82.884C55.6451 86.3415 55.512 89.6661 54.6852 92.7429C53.7867 96.0867 51.6488 100.701 46.0019 105.635L-5.70715 147.611C5.19953 139.178 35.7451 116.457 47.6867 108.374C51.134 106.04 54.7631 103.755 58.896 104.5C62.8749 105.218 66.8413 108.659 73.3051 110.74C74.06 110.983 76.1699 111.633 77.0552 110.699C77.7872 109.926 77.0154 108.775 77.688 108.044C78.5901 107.064 80.7111 108.339 84.0926 108.636C86.477 108.845 88.2761 108.461 89.8232 108.131C90.2896 108.032 97.2547 106.502 97.2823 104.299Z" fill="#F2F2F2"/>
<path d="M5.25413 86.8548C4.44783 86.367 3.02402 88.1135 2.33981 87.6454C1.65804 87.179 2.83444 85.2826 2.60365 82.5125C2.56203 82.013 2.29977 78.8649 1.05884 78.5145C-1.29329 77.8502 -5.0923 87.821 -8.65822 87.1324C-9.44079 86.9813 -10.2953 86.3007 -12.7147 85.7483C-13.6772 85.5285 -14.2123 85.4832 -14.5453 85.7849C-15.0177 86.2129 -14.6702 86.9658 -14.4868 88.7137C-14.2118 91.3351 -14.8 91.4828 -14.3918 93.4732C-14.0888 94.9508 -13.6056 95.6454 -13.9746 96.0287C-14.4968 96.5711 -15.8018 95.5304 -16.5374 96.0799C-17.288 96.6406 -16.9392 98.479 -16.4643 99.741C-15.5732 102.109 -13.9798 103.134 -12.7082 104.427C-11.3263 105.833 -9.67841 108.214 -8.88632 112.409L-3.20368 149.9C-4.19562 142.113 -6.5341 120.566 -7.05574 112.372C-7.20633 110.007 -7.28118 107.566 -5.72281 105.753C-4.22248 104.007 -1.38913 103.053 1.4972 100.481C1.8343 100.181 2.76195 99.3329 2.559 98.6289C2.39121 98.0468 1.60349 98.0935 1.43874 97.5524C1.21775 96.8267 2.45565 96.1537 3.57698 94.5797C4.36767 93.4698 4.6985 92.4761 4.98299 91.6216C5.06877 91.3639 6.32746 87.504 5.2541 86.8548L5.25413 86.8548Z" fill="#F2F2F2"/>
<path d="M19.1042 100.249L21.2594 95.6271L21.6809 95.4342C23.631 94.5428 25.057 93.3803 25.9211 91.9782C26.0585 91.7553 26.1845 91.5254 26.313 91.2913C26.8218 90.3634 27.4541 89.2097 28.8369 88.2589C29.6098 87.7299 31.561 86.6041 32.8185 87.6581C33.1596 87.9378 33.337 88.2812 33.4288 88.6124C33.4907 88.5814 33.5537 88.551 33.6213 88.5177C34.4542 88.1229 34.9679 88.0493 35.4626 87.9784C35.8428 87.9238 36.2352 87.8679 36.9557 87.608C37.2718 87.4941 37.5315 87.3832 37.7503 87.2902C38.4132 87.0095 39.2444 86.6997 40.0632 87.2136C40.9193 87.7933 40.9361 88.804 40.9477 89.4733C40.9688 90.6673 40.8378 91.4388 40.7507 91.9504C40.7185 92.1372 40.6831 92.3478 40.6857 92.421C40.7149 93.0122 43.2627 94.0307 44.2194 94.4195C46.3726 95.2861 48.2358 96.0359 48.1804 97.6935C48.1418 98.8797 47.0597 99.8191 44.8743 100.558C44.1937 100.788 43.5569 100.89 43.0142 100.943C43.2102 101.315 43.3139 101.765 43.1554 102.276C42.7787 103.485 41.2362 103.986 38.5691 103.769C37.9057 103.717 37.0146 103.643 35.9582 103.225C35.4608 103.028 35.0441 102.8 34.6909 102.598C34.5612 102.794 34.3817 102.983 34.1231 103.132C33.3633 103.571 32.4263 103.43 31.3483 102.669C30.1511 101.849 29.2767 100.992 28.5046 100.237C27.8298 99.5787 27.2471 99.0139 26.6948 98.7256C25.6624 98.2047 24.4235 98.5295 22.9103 99.0081L19.1042 100.249Z" fill="#F2F2F2"/>
<path d="M37.0699 75.8615L32.0523 74.9492L31.7588 74.5904C30.4019 72.9302 28.9157 71.8457 27.3403 71.3655C27.0898 71.2891 26.8355 71.2256 26.5765 71.1607C25.5498 70.9038 24.2735 70.5849 23.003 69.4884C22.2953 68.875 20.7114 67.2732 21.4119 65.7894C21.596 65.3886 21.8831 65.1298 22.1802 64.957C22.1345 64.905 22.0892 64.8518 22.0398 64.7948C21.4466 64.0893 21.2451 63.6112 21.0512 63.1506C20.9018 62.7967 20.7483 62.4312 20.3141 61.8002C20.1238 61.5234 19.9505 61.3003 19.8051 61.1123C19.3654 60.5423 18.8549 59.8168 19.1443 58.8944C19.4879 57.9193 20.4614 57.6467 21.1058 57.4657C22.2554 57.1424 23.0349 57.0734 23.5519 57.0279C23.7407 57.0118 23.9534 56.9925 24.0236 56.9714C24.588 56.7933 24.9269 54.0704 25.0604 53.0463C25.3524 50.7438 25.6051 48.7514 27.2226 48.3845C28.3798 48.121 29.563 48.9293 30.8324 50.8558C31.2273 51.4559 31.4871 52.0461 31.6761 52.5575C31.986 52.2736 32.3953 52.0591 32.9299 52.0828C34.1952 52.1404 35.0708 53.5055 35.5375 56.1404C35.6554 56.7953 35.8102 57.6759 35.6737 58.8038C35.609 59.335 35.4937 59.7961 35.3887 60.1887C35.6113 60.2644 35.8392 60.3902 36.0489 60.6026C36.6667 61.2261 36.7673 62.1683 36.3046 63.4041C35.8157 64.77 35.2081 65.8333 34.6737 66.7716C34.2081 67.5913 33.8096 68.2983 33.6708 68.9056C33.4288 70.0364 34.0572 71.1524 34.904 72.4947L37.0699 75.8615Z" fill="#F2F2F2"/>
<path d="M42.5986 61.744L44.7537 57.1219L45.1753 56.929C47.1254 56.0376 48.5513 54.8751 49.4154 53.473C49.5529 53.2501 49.6788 53.0202 49.8073 52.7862C50.3162 51.8582 50.9485 50.7045 52.3313 49.7536C53.1041 49.2247 55.0553 48.0989 56.3129 49.1529C56.6539 49.4327 56.8314 49.776 56.9232 50.1072C56.9851 50.0762 57.0481 50.0458 57.1157 50.0125C57.9486 49.6177 58.4622 49.5441 58.957 49.4733C59.3372 49.4186 59.7296 49.3628 60.4501 49.1029C60.7661 48.989 61.0259 48.878 61.2446 48.785C61.9075 48.5043 62.7388 48.1944 63.5576 48.7084C64.4137 49.2881 64.4305 50.2988 64.4421 50.9681C64.4632 52.1621 64.3322 52.9336 64.2451 53.4452C64.2129 53.632 64.1775 53.8426 64.1801 53.9159C64.2093 54.507 66.7571 55.5255 67.7138 55.9143C69.867 56.7809 71.7301 57.5307 71.6748 59.1883C71.6362 60.3745 70.5541 61.314 68.3686 62.0532C67.6881 62.2829 67.0513 62.3846 66.5086 62.4376C66.7046 62.8095 66.8082 63.2598 66.6498 63.7708C66.2731 64.9801 64.7305 65.4809 62.0635 65.264C61.4001 65.2119 60.509 65.1383 59.4526 64.7202C58.9552 64.5228 58.5384 64.2943 58.1853 64.0932C58.0556 64.2892 57.876 64.4778 57.6175 64.6268C56.8577 65.0662 55.9207 64.9245 54.8427 64.1636C53.6454 63.3442 52.7711 62.4868 51.999 61.7318C51.3242 61.0736 50.7414 60.5087 50.1891 60.2205C49.1568 59.6995 47.9179 60.0244 46.4047 60.5029L42.5986 61.744Z" fill="#F2F2F2"/>
<path d="M-4.21573 148.424L-4.77567 147.303L-4.35643 146.123L-4.77567 147.303L-5.90665 146.779C-5.86346 146.671 -5.78325 146.41 -5.65452 146.004C-4.94736 143.781 -2.79787 137.014 1.65575 127.009C4.76483 120.024 8.34933 113.081 12.3109 106.367C16.2789 99.6433 19.6726 94.7907 22.3995 90.8901C24.4567 87.9484 26.4654 85.1778 28.4241 82.4798C33.6544 75.2704 38.594 68.4599 43.0049 60.2747C43.9905 58.4479 46.0403 54.6445 46.2798 49.4126C46.4184 46.3781 45.9305 43.311 44.8272 40.2986L47.1823 39.4364C48.3984 42.7642 48.9366 46.1601 48.7829 49.5294C48.5173 55.3302 46.2839 59.4746 45.2108 61.4658C40.7218 69.7955 35.7339 76.6711 30.4527 83.9498C28.5025 86.6386 26.5014 89.3967 24.4529 92.3265C21.751 96.1908 18.3872 101.001 14.4705 107.639C10.5553 114.272 7.01523 121.131 3.94438 128.027C-0.452477 137.906 -2.56932 144.573 -3.2649 146.763C-3.63705 147.932 -3.71485 148.177 -4.21573 148.424Z" fill="#F2F2F2"/>
<path d="M38.8302 41.3037C38.7424 41.2501 38.6549 41.1939 38.5689 41.1328C36.8072 39.9231 35.7857 37.8033 35.5312 34.8329C35.414 33.4369 35.7243 32.1155 36.3432 29.4801C36.438 29.0735 36.9426 27.0249 38.0541 24.4608C38.7799 22.7851 39.2009 22.1561 39.8549 21.7726C40.5819 21.3446 41.4015 21.237 42.2022 21.3156C42.2999 21.0943 42.4506 20.8966 42.6707 20.7356C43.5795 20.066 44.4774 20.7745 44.9674 21.1508C45.2123 21.3461 45.5166 21.592 45.8853 21.7912C46.4638 22.1069 46.8677 22.124 47.4781 22.1525C48.0624 22.1793 48.7888 22.2125 49.697 22.5401C51.4915 23.1793 52.55 24.4444 52.8992 24.861C54.7425 27.0436 54.7857 29.5382 54.8351 32.4265C54.8434 33.0049 54.8189 35.077 54.1433 37.5258C53.6558 39.2925 53.1874 39.924 52.7545 40.3422C51.868 41.2031 50.8896 41.4089 48.5236 41.7369C46.0506 42.0828 44.8104 42.2549 43.849 42.233C41.613 42.1789 40.2089 42.1449 38.8302 41.3036L38.8302 41.3037Z" fill="#F2F2F2"/>
</g>
<defs>
<clipPath id="clip0_1_30">
<rect width="583.04" height="431.02" fill="white"/>
</clipPath>
</defs>
</svg>
