<svg width="15" height="15" viewBox="0 0 15 15" fill="none" xmlns="http://www.w3.org/2000/svg">
<path d="M7.50002 14.5833C6.52016 14.5833 5.59933 14.3974 4.73752 14.0255C3.87572 13.6536 3.12606 13.149 2.48856 12.5115C1.85106 11.874 1.34637 11.1243 0.974499 10.2625C0.602624 9.40069 0.416687 8.47986 0.416687 7.5C0.416687 6.52014 0.602624 5.59931 0.974499 4.7375C1.34637 3.87569 1.85106 3.12604 2.48856 2.48854C3.12606 1.85104 3.87572 1.34635 4.73752 0.974479C5.59933 0.602604 6.52016 0.416667 7.50002 0.416667C8.47988 0.416667 9.40071 0.602604 10.2625 0.974479C11.1243 1.34635 11.874 1.85104 12.5115 2.48854C13.149 3.12604 13.6537 3.87569 14.0255 4.7375C14.3974 5.59931 14.5834 6.52014 14.5834 7.5V8.43854C14.5834 9.09965 14.3502 9.65746 13.8839 10.112C13.4176 10.5665 12.8479 10.7937 12.175 10.7937C11.75 10.7937 11.3486 10.6905 10.9709 10.4839C10.5931 10.2773 10.3038 9.98507 10.1031 9.60729C9.7962 10.0087 9.41252 10.3068 8.9521 10.5016C8.49169 10.6964 8.00766 10.7937 7.50002 10.7937C6.57919 10.7937 5.79707 10.475 5.15367 9.8375C4.51026 9.2 4.18856 8.42083 4.18856 7.5C4.18856 6.57917 4.51026 5.7941 5.15367 5.14479C5.79707 4.49549 6.57919 4.17083 7.50002 4.17083C8.42085 4.17083 9.20297 4.49549 9.84637 5.14479C10.4898 5.7941 10.8115 6.57917 10.8115 7.5V8.43854C10.8115 8.80451 10.9443 9.11146 11.2099 9.35937C11.4755 9.60729 11.7972 9.73125 12.175 9.73125C12.541 9.73125 12.8568 9.60729 13.1224 9.35937C13.388 9.11146 13.5209 8.80451 13.5209 8.43854V7.5C13.5209 5.82361 12.9365 4.40104 11.7677 3.23229C10.599 2.06354 9.17641 1.47917 7.50002 1.47917C5.82363 1.47917 4.40106 2.06354 3.23231 3.23229C2.06356 4.40104 1.47919 5.82361 1.47919 7.5C1.47919 9.17639 2.06356 10.599 3.23231 11.7677C4.40106 12.9365 5.82363 13.5208 7.50002 13.5208H11.2896V14.5833H7.50002ZM7.50002 9.73125C8.12571 9.73125 8.65696 9.5158 9.09377 9.0849C9.53058 8.65399 9.74898 8.12569 9.74898 7.5C9.74898 6.8625 9.53058 6.32535 9.09377 5.88854C8.65696 5.45174 8.12571 5.23333 7.50002 5.23333C6.87433 5.23333 6.34308 5.45174 5.90627 5.88854C5.46946 6.32535 5.25106 6.8625 5.25106 7.5C5.25106 8.12569 5.46946 8.65399 5.90627 9.0849C6.34308 9.5158 6.87433 9.73125 7.50002 9.73125Z" fill="#112222"/>
</svg>
